<?xml version="1.0" encoding="UTF-8" standalone="no"?>
<!-- Generator: Adobe Illustrator 19.0.0, SVG Export Plug-In . SVG Version: 6.00 Build 0)  -->

<svg
   xmlns:dc="http://purl.org/dc/elements/1.1/"
   xmlns:cc="http://creativecommons.org/ns#"
   xmlns:rdf="http://www.w3.org/1999/02/22-rdf-syntax-ns#"
   xmlns:svg="http://www.w3.org/2000/svg"
   xmlns="http://www.w3.org/2000/svg"
   xmlns:sodipodi="http://sodipodi.sourceforge.net/DTD/sodipodi-0.dtd"
   xmlns:inkscape="http://www.inkscape.org/namespaces/inkscape"
   version="1.1"
   id="Layer_1"
   x="0px"
   y="0px"
   viewBox="0 0 20 20"
   xml:space="preserve"
   sodipodi:docname="library.svg"
   width="20"
   height="20"
   inkscape:version="0.92.4 (5da689c313, 2019-01-14)"><metadata
   id="metadata27"><rdf:RDF><cc:Work
       rdf:about=""><dc:format>image/svg+xml</dc:format><dc:type
         rdf:resource="http://purl.org/dc/dcmitype/StillImage" /><dc:title></dc:title></cc:Work></rdf:RDF></metadata><defs
   id="defs25" /><sodipodi:namedview
   pagecolor="#ffffff"
   bordercolor="#666666"
   borderopacity="1"
   objecttolerance="10"
   gridtolerance="10"
   guidetolerance="10"
   inkscape:pageopacity="0"
   inkscape:pageshadow="2"
   inkscape:window-width="1366"
   inkscape:window-height="721"
   id="namedview23"
   showgrid="false"
   fit-margin-top="0"
   fit-margin-left="0"
   fit-margin-right="0"
   fit-margin-bottom="0"
   inkscape:zoom="14.866142"
   inkscape:cx="15.485582"
   inkscape:cy="9.1848676"
   inkscape:window-x="-4"
   inkscape:window-y="-4"
   inkscape:window-maximized="1"
   inkscape:current-layer="Layer_1" />









<g
   id="g4550"
   transform="matrix(0.22661802,0,0,0.22661802,-0.0145408,110.64899)"><circle
     id="circle2"
     r="44.127117"
     cy="-443.87289"
     cx="44.127117"
     style="fill:#54c0eb;stroke-width:0.17372881" /><path
     inkscape:connector-curvature="0"
     id="path4"
     d="M 67.545763,-435.81186 H 25.781356 c -3.752542,0 -6.740678,3.05762 -6.740678,6.74067 0,3.75255 3.057627,6.74068 6.740678,6.74068 h 41.764407 z"
     style="fill:#ffffff;stroke-width:0.17372881" /><path
     inkscape:connector-curvature="0"
     id="path6"
     d="M 67.754237,-421.21864 H 25.781356 c -4.308475,0 -7.783051,-3.47458 -7.783051,-7.78305 0,-4.30848 3.474576,-7.78306 7.783051,-7.78306 h 41.972881 c 0.555932,0 1.042373,0.48644 1.042373,1.04238 0,0.55593 -0.486441,1.04237 -1.042373,1.04237 H 25.781356 c -3.19661,0 -5.767797,2.57119 -5.767797,5.7678 0,3.19661 2.571187,5.76779 5.767797,5.76779 h 41.972881 c 0.555932,0 1.042373,0.48644 1.042373,1.04238 0,0.41695 -0.486441,0.90339 -1.042373,0.90339 z"
     style="fill:#ff7058;stroke-width:0.17372881" /><path
     inkscape:connector-curvature="0"
     id="path8"
     d="M 70.881356,-451.44746 H 29.116949 c -3.752542,0 -6.740678,3.05763 -6.740678,6.74068 0,3.68305 3.057627,6.74068 6.740678,6.74068 h 41.764407 z"
     style="fill:#e6e9ee;stroke-width:0.17372881" /><path
     inkscape:connector-curvature="0"
     id="path10"
     d="m 17.372881,-467.01356 h 41.764407 c 3.752543,0 6.740678,3.05763 6.740678,6.74068 0,3.68305 -3.057627,6.74068 -6.740678,6.74068 H 17.372881 Z"
     style="fill:#ffffff;stroke-width:0.17372881" /><path
     inkscape:connector-curvature="0"
     id="path12"
     d="m 17.164407,-452.42034 h 41.972881 c 4.308475,0 7.783051,-3.47458 7.783051,-7.78305 0,-4.30847 -3.474576,-7.78305 -7.783051,-7.78305 H 17.164407 c -0.555932,0 -1.042373,0.48644 -1.042373,1.04237 0,0.55593 0.486441,1.04238 1.042373,1.04238 h 41.972881 c 3.19661,0 5.767797,2.57118 5.767797,5.76779 0,3.19661 -2.571187,5.7678 -5.767797,5.7678 H 17.164407 c -0.555932,0 -1.042373,0.48644 -1.042373,1.04237 0,0.55593 0.486441,0.90339 1.042373,0.90339 z"
     style="fill:#ffd05b;stroke-width:0.17372881" /><path
     inkscape:connector-curvature="0"
     id="path14"
     d="M 71.089831,-436.85424 H 29.116949 c -4.308474,0 -7.783051,-3.47457 -7.783051,-7.78305 0,-4.30847 3.474577,-7.78305 7.783051,-7.78305 h 41.972882 c 0.555932,0 1.042372,0.48644 1.042372,1.04237 0,0.55594 -0.48644,1.04238 -1.042372,1.04238 H 29.116949 c -3.19661,0 -5.767796,2.57118 -5.767796,5.76779 0,3.19661 2.571186,5.7678 5.767796,5.7678 h 41.972882 c 0.555932,0 1.042372,0.48644 1.042372,1.04237 0,0.41695 -0.48644,0.90339 -1.042372,0.90339 z"
     style="fill:#324a5e;stroke-width:0.17372881" /><polygon
     transform="matrix(0.17372881,0,0,0.17372881,0,-488)"
     id="polygon16"
     points="359.2,292.4 342.4,274.4 324,294.4 324,235.2 359.2,235.2 "
     style="fill:#4cdbc4" /><polygon
     transform="matrix(0.17372881,0,0,0.17372881,0,-488)"
     id="polygon18"
     points="191.6,391.2 175.2,373.2 156.8,393.2 156.8,334 191.6,334 "
     style="fill:#324a5e" /><polygon
     transform="matrix(0.17372881,0,0,0.17372881,0,-488)"
     id="polygon20"
     points="153.2,198.8 136.4,180.8 118.4,200.8 118.4,141.6 153.2,141.6 "
     style="fill:#ff7058" /></g>
</svg>